<svg height="512" viewBox="0 0 128 128" width="512" xmlns="http://www.w3.org/2000/svg"><path d="m121.454 52.569h-13.354v-11.069a5.894 5.894 0 0 0 -4.452-5.705v-9.873a7.988 7.988 0 0 0 -7.979-7.98h-81.949a7.988 7.988 0 0 0 -7.979 7.98v60.042a7.988 7.988 0 0 0 7.979 7.978h30.515v10.048h-8.258a5.034 5.034 0 0 0 0 10.068h85.477a4.811 4.811 0 0 0 4.805-4.805v-51.879a4.811 4.811 0 0 0 -4.805-4.805z" fill="#e6e7e8"/><path d="m54.834 37.5a4.89 4.89 0 0 1 4.89-4.89h38.486c.149 0 .29.031.437.044v-10.732a6.98 6.98 0 0 0 -6.98-6.98h-81.947a6.98 6.98 0 0 0 -6.979 6.98v60.041a6.98 6.98 0 0 0 6.979 6.98h45.114z" fill="#6dc9f7"/><path d="m5.741 81.964v-60.042a6.979 6.979 0 0 1 6.979-6.979h-3a6.979 6.979 0 0 0 -6.979 6.979v60.042a6.98 6.98 0 0 0 6.979 6.979h3a6.98 6.98 0 0 1 -6.979-6.979z" fill="#fff"/><path d="m54.834 81.091h-8.382a1.835 1.835 0 0 0 -1.83 1.83v.388a1.836 1.836 0 0 0 1.83 1.83h8.382z" fill="#0089ef"/><path d="m54.834 37.5a4.89 4.89 0 0 1 4.89-4.89h32.97v-7.389a4 4 0 0 0 -4-4h-76a4 4 0 0 0 -4 4v47.894a4 4 0 0 0 4 4h42.14z" fill="#d4fbff"/><path d="m54.834 37.5a4.89 4.89 0 0 1 4.89-4.89h27.294v-4.389a2 2 0 0 0 -2-2h-68.648a2 2 0 0 0 -2 2v13.779a2 2 0 0 0 2 2h38.464z" fill="#ffd7e5"/><path d="m54.834 47.221h-12.209a2 2 0 0 0 -2 2v10.779a2 2 0 0 0 2 2h12.209z" fill="#fa759e"/><rect fill="#fa759e" height="20.137" rx="2" transform="matrix(0 1 -1 0 79.051 30.173)" width="14.783" x="17.048" y="44.544"/><path d="m88.121 105.252v-51.878a3.8 3.8 0 0 1 3.805-3.8h11.174v-12.074a4.889 4.889 0 0 0 -4.889-4.89h-38.487a4.89 4.89 0 0 0 -4.89 4.89v66.672a4.889 4.889 0 0 0 4.89 4.889h32.2a3.8 3.8 0 0 1 -3.803-3.809z" fill="#6dc9f7"/><path d="m41.235 88.943h13.599v12.048h-13.599z" fill="#6dc9f7"/><path d="m54.834 104.168v-3.178h-22.857a4.034 4.034 0 0 0 0 8.067h27.747a4.889 4.889 0 0 1 -4.89-4.889z" fill="#6dc9f7"/><path d="m88.121 53.374a3.8 3.8 0 0 1 3.805-3.8h11.174v-9.719h-48.266v58.837h33.287z" fill="#d4fbff"/><rect fill="#fa759e" height="18.111" rx="1.893" transform="matrix(0 1 -1 0 138.373 3.152)" width="17.775" x="58.723" y="61.707"/><path d="m88.121 53.374a3.8 3.8 0 0 1 3.805-3.8h7.453v-2.841a1.893 1.893 0 0 0 -1.893-1.893h-37.039a1.892 1.892 0 0 0 -1.892 1.893v10.2a1.893 1.893 0 0 0 1.892 1.893h27.674z" fill="#ffd7e5"/><path d="m88.121 61.875h-5.907a1.893 1.893 0 0 0 -1.893 1.892v13.99a1.893 1.893 0 0 0 1.893 1.893h5.907z" fill="#fa759e"/><rect fill="#0089ef" height="1.577" rx=".713" width="13.294" x="72.32" y="35.515"/><circle cx="88.768" cy="36.304" fill="#0089ef" r=".865"/><rect fill="#0089ef" height="3.831" rx="1.732" width="11.492" x="73.221" y="101.518"/><rect fill="#6dc9f7" height="59.488" rx="3.805" width="33.138" x="88.121" y="49.569"/><path d="m81.798 61.532h45.783v33.138h-45.783z" fill="#d4fbff" transform="matrix(0 1 -1 0 182.79 -26.589)"/><rect fill="#fa759e" height="23.138" rx="2" transform="matrix(0 1 -1 0 174.79 -34.589)" width="19.783" x="94.799" y="58.532"/><rect fill="#0089ef" height="1.227" rx=".555" width="10.345" x="99.518" y="51.833"/><path d="m112.317 51.773a.674.674 0 1 0 .673.673.674.674 0 0 0 -.673-.673z" fill="#0089ef"/><path d="m101.566 103.191h6.247a1.348 1.348 0 0 1 1.348 1.348v.286a1.347 1.347 0 0 1 -1.347 1.347h-6.247a1.347 1.347 0 0 1 -1.347-1.347v-.286a1.348 1.348 0 0 1 1.348-1.348z" fill="#0089ef"/><g fill="#3a2c60"><path d="m61.091 15.942h7.75a1 1 0 0 0 0-2h-7.75a1 1 0 0 0 0 2z"/><path d="m33.508 65.15h-18.138a1 1 0 0 0 0 2h18.138a1 1 0 1 0 0-2z"/><path d="m33.508 70.15h-18.138a1 1 0 0 0 0 2h18.138a1 1 0 1 0 0-2z"/><path d="m75.719 82.574h-16.219a1 1 0 1 0 0 2h16.219a1 1 0 0 0 0-2z"/><path d="m75.719 87.306h-16.219a1 1 0 1 0 0 2h16.219a1 1 0 0 0 0-2z"/><path d="m75.719 92.038h-16.219a1 1 0 1 0 0 2h16.219a1 1 0 0 0 0-2z"/><path d="m94.121 86.139h21.138a1 1 0 0 0 0-2h-21.138a1 1 0 0 0 0 2z"/><path d="m115.259 89.139h-21.138a1 1 0 0 0 0 2h21.138a1 1 0 0 0 0-2z"/><path d="m115.259 94.139h-21.138a1 1 0 0 0 0 2h21.138a1 1 0 0 0 0-2z"/><path d="m117.454 48.569h-13.354v-11.069a5.9 5.9 0 0 0 -4.453-5.705v-9.873a7.988 7.988 0 0 0 -7.979-7.98h-18.827a1 1 0 0 0 0 2h18.826a5.986 5.986 0 0 1 5.979 5.98v9.684h-3.952v-6.385a5.006 5.006 0 0 0 -5-5h-76a5.006 5.006 0 0 0 -5 5v47.894a5.006 5.006 0 0 0 5 5h41.14v9.827h-44.114a5.985 5.985 0 0 1 -5.979-5.978v-60.042a5.986 5.986 0 0 1 5.979-5.98h47.455a1 1 0 0 0 0-2h-47.455a7.989 7.989 0 0 0 -7.979 7.98v60.042a7.988 7.988 0 0 0 7.979 7.978h30.515v10.048h-8.258a5.034 5.034 0 0 0 0 10.068h85.477a4.811 4.811 0 0 0 4.805-4.805v-51.879a4.811 4.811 0 0 0 -4.805-4.805zm-61.62 55.6v-4.477h31.287v5.561a4.765 4.765 0 0 0 .921 2.805h-28.318a3.9 3.9 0 0 1 -3.89-3.89zm33.287-47.96h31.138v43.783h-31.138zm31.138-2.835v.835h-31.138v-.835a2.808 2.808 0 0 1 2.805-2.8h25.528a2.808 2.808 0 0 1 2.805 2.8zm-28.333-4.8a4.81 4.81 0 0 0 -4.805 4.805v29.2h-5.853a1 1 0 0 0 0 2h5.853v2.732h-5.853a1 1 0 0 0 0 2h5.853v2.732h-5.853a1 1 0 0 0 0 2h5.853v3.654h-31.287v-56.842h46.266v7.714zm10.174-11.074v1.359h-46.266v-1.359a3.9 3.9 0 0 1 3.89-3.89h38.485a3.9 3.9 0 0 1 3.891 3.89zm-89.4 38.619a3 3 0 0 1 -3-3v-47.898a3 3 0 0 1 3-3h76a3 3 0 0 1 3 3v6.385h-31.976a5.9 5.9 0 0 0 -5.89 5.89v27.654h-12.209a1 1 0 0 0 0 2h12.209v3h-12.209a1 1 0 0 0 0 2h12.209v3.965zm29.535 13.823h11.6v10.048h-11.6zm-13.291 15.081a3.037 3.037 0 0 1 3.033-3.033h21.857v2.178a5.862 5.862 0 0 0 1.479 3.89h-23.336a3.038 3.038 0 0 1 -3.033-3.035zm88.51 3.035h-25.528a2.808 2.808 0 0 1 -2.805-2.805v-3.261h31.138v3.261a2.808 2.808 0 0 1 -2.805 2.805z"/></g></svg>